HIERARCHY
ROOT Hips
{
	OFFSET 0.000000 0.000000 0.000000
	CHANNELS 6 Xposition Yposition Zposition Xrotation Yrotation Zrotation
	JOINT LeftUpLeg_virtual
	{
		OFFSET 0.000000 0.000000 0.000000
		CHANNELS 3 Xrotation Yrotation Zrotation
		JOINT LeftUpLeg
		{
			OFFSET 11.394100 -6.187798 -0.413800
			CHANNELS 3 Xrotation Yrotation Zrotation
			JOINT LeftLeg
			{
				OFFSET 0.430247 -32.302673 3.732800
				CHANNELS 3 Xrotation Yrotation Zrotation
				JOINT LeftFoot
				{
					OFFSET -0.430247 -48.264931 -6.423300
					CHANNELS 3 Xrotation Yrotation Zrotation
					JOINT LeftToeBase
					{
						OFFSET 4.230900 -16.068199 23.438400
						CHANNELS 3 Xrotation Yrotation Zrotation
						JOINT LeftToe_End
						{
							OFFSET 4.510700 0.695400 19.974600
							CHANNELS 3 Xrotation Yrotation Zrotation
							End Site
							{
								OFFSET 0 0 0
							}
						}
					}
				}
			}
		}
	}
	JOINT RightUpLeg_virtual
	{
		OFFSET 0.000000 0.000000 0.000000
		CHANNELS 3 Xrotation Yrotation Zrotation
		JOINT RightUpLeg
		{
			OFFSET -11.333700 -6.187798 -0.413800
			CHANNELS 3 Xrotation Yrotation Zrotation
			JOINT RightLeg
			{
				OFFSET -0.430392 -32.302628 3.733000
				CHANNELS 3 Xrotation Yrotation Zrotation
				JOINT RightFoot
				{
					OFFSET 0.430392 -48.264973 -6.423500
					CHANNELS 3 Xrotation Yrotation Zrotation
					JOINT RightToeBase
					{
						OFFSET -4.230900 -16.068199 23.438400
						CHANNELS 3 Xrotation Yrotation Zrotation
						JOINT RightToe_End
						{
							OFFSET -4.510700 0.695400 19.974600
							CHANNELS 3 Xrotation Yrotation Zrotation
							End Site
							{
								OFFSET 0 0 0
							}
						}
					}
				}
			}
		}
	}
	JOINT Spine_virtual
	{
		OFFSET 0.000000 0.000000 0.000000
		CHANNELS 3 Xrotation Yrotation Zrotation
		JOINT Spine
		{
			OFFSET -0.002400 12.777504 0.315300
			CHANNELS 3 Xrotation Yrotation Zrotation
			JOINT Spine1
			{
				OFFSET -0.002067 5.816869 0.032633
				CHANNELS 3 Xrotation Yrotation Zrotation
				JOINT Spine1_split
				{
					OFFSET -0.002067 5.816869 0.032633
					CHANNELS 3 Xrotation Yrotation Zrotation
					JOINT Spine2
					{
						OFFSET -0.002067 5.816869 0.032633
						CHANNELS 3 Xrotation Yrotation Zrotation
						JOINT Neck_virtual
						{
							OFFSET 0.000000 0.000000 0.000000
							CHANNELS 3 Xrotation Yrotation Zrotation
							JOINT Neck
							{
								OFFSET -0.003700 21.199493 -0.826900
								CHANNELS 3 Xrotation Yrotation Zrotation
								JOINT Head
								{
									OFFSET 0.000000 20.442200 4.834800
									CHANNELS 3 Xrotation Yrotation Zrotation
									JOINT HeadTop_End
									{
										OFFSET 0.000000 34.668396 4.968400
										CHANNELS 3 Xrotation Yrotation Zrotation
										End Site
										{
											OFFSET 0 0 0
										}
									}
								}
							}
						}
						JOINT LeftShoulder_virtual
						{
							OFFSET 0.000000 0.000000 0.000000
							CHANNELS 3 Xrotation Yrotation Zrotation
							JOINT LeftShoulder
							{
								OFFSET 3.288150 8.794197 -1.372250
								CHANNELS 3 Xrotation Yrotation Zrotation
								JOINT LeftShoulder_split
								{
									OFFSET 3.288150 8.794197 -1.372250
									CHANNELS 3 Xrotation Yrotation Zrotation
									JOINT LeftArm
									{
										OFFSET 11.953299 -2.279007 -0.146200
										CHANNELS 3 Xrotation Yrotation Zrotation
										JOINT LeftForeArm
										{
											OFFSET 18.448900 0.000000 0.000000
											CHANNELS 3 Xrotation Yrotation Zrotation
											JOINT LeftHand
											{
												OFFSET 29.527798 0.000000 0.000000
												CHANNELS 3 Xrotation Yrotation Zrotation
												End Site
												{
													OFFSET 0 0 0
												}
											}
										}
									}
								}
							}
						}
						JOINT RightShoulder_virtual
						{
							OFFSET 0.000000 0.000000 0.000000
							CHANNELS 3 Xrotation Yrotation Zrotation
							JOINT RightShoulder
							{
								OFFSET -3.249400 8.794197 -1.372250
								CHANNELS 3 Xrotation Yrotation Zrotation
								JOINT RightShoulder_split
								{
									OFFSET -3.249400 8.794197 -1.372250
									CHANNELS 3 Xrotation Yrotation Zrotation
									JOINT RightArm
									{
										OFFSET -11.953299 -2.279007 -0.146200
										CHANNELS 3 Xrotation Yrotation Zrotation
										JOINT RightForeArm
										{
											OFFSET -18.448900 0.000000 0.000000
											CHANNELS 3 Xrotation Yrotation Zrotation
											JOINT RightHand
											{
												OFFSET -29.527802 0.000000 0.000000
												CHANNELS 3 Xrotation Yrotation Zrotation
												End Site
												{
													OFFSET 0 0 0
												}
											}
										}
									}
								}
							}
						}
					}
				}
			}
		}
	}
}
MOTION
Frames: 9
Frame Time: 0.03333333
-1.258660 85.611732 4.338596 0.000000 0.000000 0.000000 13.815705 -47.343781 11.817170 -66.594993 27.582490 38.832784 39.490409 -12.906138 2.332827 5.451302 0.584119 -4.055600 1.547503 -7.902887 0.250384 0.000000 0.000000 0.000000 12.065300 -47.265664 12.087491 -34.484570 0.433209 -25.150288 41.348032 4.862750 -10.614134 -26.896144 -2.117835 27.197267 7.460727 11.382055 3.900494 0.000000 0.000000 0.000000 15.715937 -44.546070 13.207770 11.323294 1.016570 -3.891719 3.418296 8.359381 -3.703374 1.332161 -3.365197 1.062575 0.000000 0.000000 0.000000 -3.053992 5.362650 -1.338704 -3.837651 13.394540 4.234425 -4.787639 23.189553 -3.212290 0.000000 0.000000 0.000000 -3.996260 5.476835 -1.793118 0.897874 -11.647219 -0.566902 0.349208 -3.074723 -1.466248 -14.155934 7.339238 -49.659642 -21.162006 -24.991503 -13.945269 0.000000 0.000000 0.000000 -4.314724 4.890379 -1.652086 -2.485544 23.760358 0.717929 3.760429 2.761476 0.500991 9.977925 -34.942640 61.007666 -23.374388 42.958079 19.854774 0.000000 0.000000 0.000000 
-0.149950 85.683578 5.028374 0.000000 0.000000 0.000000 13.873054 -48.121176 11.695826 -66.558554 27.461440 39.044117 39.958594 -12.638361 1.968047 4.990881 0.651171 -4.231868 1.576331 -7.979311 0.771117 0.000000 0.000000 0.000000 12.365519 -47.936378 12.214192 -34.116436 0.864604 -25.416640 40.115279 4.871432 -10.219919 -26.421596 -1.899627 26.930118 6.183258 11.385834 3.772463 0.000000 0.000000 0.000000 15.461439 -45.107174 12.792655 11.342473 1.129869 -3.689463 3.368370 8.160299 -3.796995 0.768962 -3.343480 0.873255 0.000000 0.000000 0.000000 -3.279749 5.169590 -1.339003 -3.811505 13.170855 3.935056 -4.475989 23.483218 -3.548820 0.000000 0.000000 0.000000 -4.215724 5.291143 -1.824400 0.816249 -11.427833 -0.310752 1.453934 -2.528216 -1.431619 -13.352286 7.893121 -49.520613 -20.972408 -25.351285 -14.178317 0.000000 0.000000 0.000000 -4.504679 4.722207 -1.653360 -2.650187 23.527637 1.356663 3.958913 2.572427 0.468351 11.181139 -35.460546 62.078613 -23.324188 42.097693 19.677061 0.000000 0.000000 0.000000 
1.868977 86.016029 6.003017 0.000000 0.000000 0.000000 13.851274 -50.012199 11.561134 -66.732014 27.590044 39.572125 41.610025 -12.053531 1.511630 3.992959 0.853762 -3.948528 1.390992 -8.027099 1.343282 0.000000 0.000000 0.000000 12.654817 -49.755507 12.293726 -33.810468 1.173917 -26.168821 37.364143 5.029954 -9.593014 -23.924650 -1.222162 27.727192 5.396876 11.190304 3.512069 0.000000 0.000000 0.000000 15.404472 -46.697262 12.563608 11.399618 1.327716 -3.327798 3.518965 7.682204 -3.783395 0.247824 -3.221110 0.859833 0.000000 0.000000 0.000000 -3.290871 4.669978 -1.266897 -3.020314 12.531858 3.695553 -4.702543 23.113522 -4.190640 0.000000 0.000000 0.000000 -4.303309 4.790985 -1.794338 0.680512 -11.175534 0.018273 2.609486 -2.047164 -0.943913 -12.231187 8.650906 -49.498702 -20.143935 -25.367172 -14.503919 0.000000 0.000000 0.000000 -4.511602 4.253752 -1.604778 -2.959985 23.077754 2.079764 3.772086 2.314938 0.160835 11.715843 -35.291342 62.662758 -23.470207 40.807023 19.701939 0.000000 0.000000 0.000000 
4.342681 86.455803 7.231609 0.000000 0.000000 0.000000 13.795529 -52.665157 11.498217 -66.936803 27.970424 40.181832 43.872224 -11.332356 1.036057 2.417202 1.095846 -3.203526 1.289779 -8.074761 1.899852 0.000000 0.000000 0.000000 12.809996 -52.341372 12.294107 -33.662037 1.301474 -27.326844 33.751182 5.370329 -8.779009 -19.526980 -0.057851 29.618402 4.743966 10.823459 3.282866 0.000000 0.000000 0.000000 15.524779 -49.012649 12.510281 11.422511 1.560209 -2.822656 3.871728 6.925218 -3.673809 -0.034456 -3.171098 1.090781 0.000000 0.000000 0.000000 -3.075444 3.853180 -1.154806 -1.627949 11.559909 3.551546 -5.558762 22.111713 -5.005579 0.000000 0.000000 0.000000 -4.223264 3.961708 -1.725957 0.497952 -10.974425 0.328081 3.688005 -1.590092 -0.122239 -11.109775 9.582901 -49.433863 -18.849760 -24.990658 -14.833538 0.000000 0.000000 0.000000 -4.366172 3.449020 -1.523737 -3.316102 22.445330 2.697501 3.097409 1.857498 -0.240441 11.401596 -34.329473 62.686937 -23.826524 39.322314 19.924847 0.000000 0.000000 0.000000 
6.916906 86.882668 8.658180 0.000000 0.000000 0.000000 13.663687 -55.658850 11.445891 -66.863153 28.646194 40.599488 45.982114 -10.582334 0.563973 0.447324 1.321597 -2.064790 1.317661 -8.140136 2.369515 0.000000 0.000000 0.000000 12.772429 -55.219228 12.156451 -33.423087 1.114296 -28.634871 29.763065 5.690663 -7.908326 -14.663998 1.059939 31.669381 4.311384 10.174814 3.435701 0.000000 0.000000 0.000000 15.845832 -51.652110 12.577478 11.348831 1.752792 -2.175226 4.407376 5.879190 -3.488924 -0.006204 -3.107642 1.384238 0.000000 0.000000 0.000000 -2.655033 2.717360 -1.034488 0.061299 10.323778 3.528097 -6.954358 20.516024 -5.819649 0.000000 0.000000 0.000000 -3.927860 2.803055 -1.639180 0.297209 -10.907308 0.583382 4.628435 -1.086978 0.775087 -10.309627 10.753881 -49.331161 -17.296838 -24.158101 -15.110084 0.000000 0.000000 0.000000 -4.038894 2.309981 -1.431551 -3.677080 21.678235 3.072860 2.140096 1.216670 -0.484272 10.462405 -32.695279 62.408934 -24.291175 37.710369 20.204560 0.000000 0.000000 0.000000 
9.204217 87.310585 9.990982 0.000000 0.000000 0.000000 13.429044 -58.567820 11.344904 -66.276638 29.547627 40.578144 47.352038 -9.846046 0.112169 -1.591570 1.503172 -0.637294 1.360239 -8.210698 2.658027 0.000000 0.000000 0.000000 12.537488 -57.834128 11.819891 -32.697215 0.612009 -29.850157 25.707198 5.715853 -7.116579 -10.775691 1.376128 32.899317 4.221002 9.177466 4.208153 0.000000 0.000000 0.000000 16.180954 -54.264569 12.627357 11.069046 1.848588 -1.394598 5.088674 4.539881 -3.263218 0.008656 -3.047104 1.512721 0.000000 0.000000 0.000000 -2.036036 1.285360 -0.939852 1.709812 8.888984 3.629407 -8.692475 18.488624 -6.470214 0.000000 0.000000 0.000000 -3.392412 1.336716 -1.555370 0.094162 -10.985062 0.729839 5.246618 -0.695308 1.317989 -9.992919 12.107035 -49.280218 -15.684100 -22.887626 -15.275424 0.000000 0.000000 0.000000 -3.572087 0.867353 -1.336567 -4.033200 20.883570 3.128895 1.242334 0.507417 -0.551734 9.190379 -30.583593 62.154783 -24.749843 36.027974 20.389544 0.000000 0.000000 0.000000 
11.139273 87.727783 11.137527 0.000000 0.000000 0.000000 13.110724 -61.103173 11.088820 -65.250218 30.702356 40.203661 47.807909 -9.006761 -0.361679 -3.454280 1.588447 1.017823 1.375993 -8.291634 2.691306 0.000000 0.000000 0.000000 12.238229 -60.133791 11.362015 -31.436782 -0.204437 -30.863166 22.468601 5.209245 -6.513072 -8.083730 0.631159 32.795102 4.548394 7.880630 5.631682 0.000000 0.000000 0.000000 16.444992 -56.727562 12.637053 10.539306 1.815869 -0.545383 5.861777 2.908913 -3.026524 0.071132 -2.862354 1.359352 0.000000 0.000000 0.000000 -1.248954 -0.383265 -0.877722 3.124794 7.333222 3.850738 -10.478835 16.181763 -6.863655 0.000000 0.000000 0.000000 -2.603756 -0.381907 -1.464805 -0.098736 -11.201096 0.718785 5.392400 -0.250303 1.361433 -10.069712 13.485598 -49.533918 -14.251544 -21.390824 -15.346487 0.000000 0.000000 0.000000 -2.980363 -0.839486 -1.242256 -4.348144 20.144417 2.937682 0.567668 -0.017504 -0.605986 8.000407 -28.179670 62.326111 -25.108028 34.361814 20.374328 0.000000 0.000000 0.000000 
12.677896 88.233086 12.032452 0.000000 0.000000 0.000000 12.732165 -63.197049 10.655978 -63.857563 32.029626 39.577979 47.493727 -7.943158 -0.911900 -4.936878 1.614368 2.708082 1.497315 -8.384711 2.435420 0.000000 0.000000 0.000000 11.934722 -62.277446 10.869284 -30.071912 -1.385633 -31.561215 20.823358 4.111733 -6.076517 -6.048575 -1.072223 31.567536 5.112718 6.387497 7.430045 0.000000 0.000000 0.000000 16.476556 -58.999782 12.515210 9.788771 1.648876 0.294544 6.671882 1.060952 -2.805498 0.127022 -2.513087 1.064186 0.000000 0.000000 0.000000 -0.333406 -2.201226 -0.838732 4.147506 5.716247 4.217257 -12.031467 13.675057 -6.949630 0.000000 0.000000 0.000000 -1.634467 -2.257853 -1.328488 -0.272897 -11.531413 0.607131 5.246883 0.328141 1.077158 -10.412574 14.773697 -50.302219 -13.131200 -20.043602 -15.374722 0.000000 0.000000 0.000000 -2.265101 -2.731083 -1.159329 -4.633086 19.552752 2.557688 0.285865 -0.303399 -0.738612 7.050710 -25.915619 63.053670 -25.345748 33.042075 20.162356 0.000000 0.000000 0.000000 
13.776424 88.824646 12.835785 0.000000 0.000000 0.000000 12.272000 -64.951178 10.119314 -62.330599 33.443963 38.872553 46.775506 -6.842151 -1.481320 -6.031422 1.564728 3.971348 1.790262 -8.457756 1.989665 0.000000 0.000000 0.000000 11.681188 -64.384362 10.446096 -29.164324 -2.724485 -31.898708 20.910028 2.641652 -5.752786 -4.052745 -3.120779 30.021506 5.459826 4.837853 9.013921 0.000000 0.000000 0.000000 16.093030 -61.041899 12.125104 8.875710 1.394969 1.026967 7.464125 -0.873366 -2.596091 0.007927 -1.970624 0.719760 0.000000 0.000000 0.000000 0.664336 -4.059338 -0.797007 4.850610 4.175155 4.696083 -13.148711 11.058832 -6.737401 0.000000 0.000000 0.000000 -0.579724 -4.180865 -1.120883 -0.441187 -11.853646 0.367211 4.897320 0.862196 0.957647 -10.833152 15.883861 -51.614961 -12.351312 -19.092641 -15.322314 0.000000 0.000000 0.000000 -1.494755 -4.698541 -1.071040 -4.869075 19.126835 2.030425 0.222481 -0.387529 -0.949481 6.168503 -24.061305 64.080876 -25.433760 32.294015 19.766841 0.000000 0.000000 0.000000 
